<svg id="Слой_1" data-name="Слой 1" xmlns="http://www.w3.org/2000/svg" viewBox="0 0 512 512"><defs><style>.cls-1{fill:#f60;}.cls-2{fill:#1c1919;}</style></defs><title>Монтажная область 6</title><rect class="cls-1" width="512" height="512"/><path class="cls-2" d="M262.05,126H329.5q32,0,48.41,5t26.58,20.14q10.13,15.16,10.12,48.87,0,22.78-7.15,31.77t-28.18,13.8q23.45,5.31,31.8,17.6t8.35,37.68v24.1q0,26.35-6,39.05a32.47,32.47,0,0,1-19.19,17.35Q381,386,340.26,386H262.05Zm67.61,44.48V228.3c2.89-.1,5.14-.16,6.74-.16q10,0,12.69-4.9t2.73-28q0-12.19-2.25-17.1t-5.86-6.19Q340.1,170.66,329.66,170.49Zm0,98.28v72.75q14.28-.48,18.22-4.5t3.94-19.75V293q0-16.69-3.54-20.24T329.66,268.77Z"/><path class="cls-2" d="M248.24,373.66,181.5,133.13c-2.64-9.51-16.12-9.51-18.76,0L92.57,386H238.86A9.74,9.74,0,0,0,248.24,373.66Zm-91.47-8.93H118.35l17-61.34a7.16,7.16,0,0,1,13.8,0l14.5,52.26A7.16,7.16,0,0,1,156.77,364.73Z"/></svg>